<svg width="296" height="196" viewBox="0 0 296 196" fill="none" xmlns="http://www.w3.org/2000/svg" id="svg31197840_24333">
<path d="M224.997 76.3154C223.871 78.5334 222.316 80.3288 220.063 81.5908C217.625 82.9694 214.916 83.6281 212.268 84.4383C207.974 85.7586 203.772 87.3442 199.691 89.1454C194.301 91.5411 189.157 94.4469 183.886 97.0875C179.106 99.4833 174.385 101.972 169.697 104.549C168.237 105.33 166.807 106.108 165.344 106.915C161.903 108.775 158.494 110.693 155.145 112.762C155.082 112.791 155.053 112.82 154.994 112.85C151.461 115.038 147.836 117.108 144.273 119.294C142.63 120.314 140.924 121.331 139.431 122.561C138.762 123.1 138.122 123.668 137.391 124.208C137.115 124.417 136.932 124.718 136.932 125.228C136.964 126.367 136.813 127.536 136.721 128.644C136.659 129.305 136.964 130.083 136.508 130.681C136.446 130.768 136.413 131.01 136.479 131.039C137.118 131.608 136.6 132.237 136.6 132.838C136.6 133.826 136.538 134.846 136.6 135.863C136.63 137.151 136.449 138.501 136.449 139.818C136.416 140.748 136.203 141.71 136.692 142.578C136.724 142.607 136.692 142.695 136.662 142.756C135.898 143.805 136.754 144.883 136.633 145.965C136.482 147.104 136.57 148.241 136.57 149.378C136.541 151.357 136.479 153.336 136.721 155.283C136.751 155.612 136.508 155.522 136.416 155.644C135.898 156.212 135.96 157.11 136.57 157.562C136.721 157.681 136.813 157.92 136.754 157.92C135.563 158.04 136.325 158.818 136.449 159.118C136.813 159.838 136.541 160.587 136.265 161.007C135.655 161.995 136.295 162.656 136.541 163.403C136.662 163.703 136.692 163.884 136.511 164.064C135.901 164.542 136.022 165.052 136.357 165.621C136.482 165.86 136.787 166.072 136.265 166.431C135.868 166.702 135.99 167.329 136.387 167.69C136.662 167.961 137.423 168.051 136.57 168.529C136.935 169.217 136.082 170.118 136.902 170.75C137.269 171.018 137.299 171.287 137.177 171.68C136.902 172.487 137.696 173.059 137.696 173.837C137.696 174.347 138.181 174.766 137.482 175.247C137.269 175.396 137.545 176.055 137.391 176.536C137.299 176.926 137.482 177.465 138.152 177.495C138.365 177.524 138.365 177.795 138.365 177.972C138.365 178.602 138.516 179.261 138.851 179.713C139.52 180.581 138.972 180.972 138.332 181.362C138.06 181.543 137.755 181.662 138.362 181.753C138.634 181.814 138.424 181.84 138.362 181.933C137.752 182.802 137.998 183.583 138.972 183.971C139.156 184.032 139.825 184.061 139.156 184.513C138.759 184.781 139.277 184.813 139.399 184.9C140.068 185.381 139.674 185.83 139.369 186.25C139.185 186.489 139.034 187.357 139.277 187.538C139.461 187.719 139.582 188.016 139.733 188.106C140.645 188.678 140.068 189.336 139.763 189.788C139.366 190.418 139.428 190.747 140.16 191.047C139.674 191.286 139.339 191.557 139.156 192.006C138.181 194.253 135.987 195.544 133.582 195.544C133.156 195.544 132.729 195.515 132.333 195.425C129.531 194.915 127.917 193.446 127.156 190.689C126.333 187.78 126.516 184.842 126.546 181.878C126.575 179.269 126.88 176.661 126.821 174.055C126.729 171.298 127.186 168.573 127.005 165.816C126.854 163.508 127.126 161.199 127.218 158.891C127.369 155.685 127.28 152.45 127.28 149.244C127.31 143.668 127.31 138.095 127.372 132.52C127.372 132.01 127.31 131.774 127.097 131.774C126.975 131.774 126.792 131.864 126.549 131.984C124.508 133.123 122.619 134.47 120.795 135.877C117.291 138.635 113.699 141.304 110.166 144.029C107.456 146.157 104.806 148.317 102.096 150.444C98.3528 153.382 94.6687 156.379 90.8603 159.255C88.6066 160.966 86.7498 163.094 84.6501 164.953C83.3382 166.122 81.7568 166.99 80.6581 168.398C79.5623 169.777 78.1941 170.945 76.974 172.208C74.6878 174.574 72.4371 177.002 69.8784 179.098C69.5141 179.398 69.2387 179.727 68.9662 180.088C67.8675 181.525 66.5586 182.784 65.2822 184.105C64.1242 185.332 62.7235 186.352 61.6573 187.643C60.4402 189.141 58.8854 189.8 57.15 189.8C56.7532 189.8 56.3297 189.771 55.8707 189.677C53.7088 189.319 51.9408 188.208 51.2419 185.99C50.7858 184.434 50.7562 182.965 51.8194 181.557C53.9191 178.8 56.3267 176.314 58.9447 174.003C61.5922 171.636 64.1805 169.179 66.8606 166.81C70.4233 163.633 74.1399 160.578 77.9454 157.699C80.2612 155.962 82.4527 154.102 84.6146 152.152C86.4744 150.538 88.5444 149.156 90.4309 147.568C93.6292 144.898 96.9757 142.354 100.328 139.868C102.795 138.037 105.321 136.271 107.85 134.531C112.784 131.115 117.593 127.577 122.344 123.951C123.774 122.841 125.266 121.823 126.789 120.894C127.609 120.384 127.337 119.635 127.428 119.034C127.612 117.865 127.523 116.668 127.491 115.47C127.458 114.928 127.337 114.689 127.094 114.689C126.943 114.689 126.759 114.779 126.484 114.963C125.539 115.557 124.689 116.309 123.682 116.761C121.061 117.93 118.381 118.827 115.583 118.827C114.576 118.827 113.542 118.708 112.506 118.437C109.671 117.717 107.969 115.799 107.329 112.984C106.843 110.795 106.902 108.609 106.965 106.423C107.027 105.073 107.116 103.695 106.751 102.345C106.627 101.865 106.627 101.267 106.814 100.815C107.513 98.8683 107.119 96.8281 107.453 94.8521C108.063 91.3138 108.487 87.7201 110.193 84.4821C111.747 81.515 113.45 78.5771 116.222 76.5107C117.958 75.1933 119.814 74.0537 122.038 73.634C122.435 73.5728 122.829 73.5116 123.196 73.5116C123.564 73.5116 123.898 73.5437 124.233 73.6632C125.207 73.9634 125.814 74.7124 125.634 75.6713C125.237 77.7377 124.63 79.6584 122.865 81.0924C122.041 81.754 121.402 82.6809 121.038 83.701C120.916 84.0624 120.581 84.1819 120.427 84.5112C119.299 86.9099 118.325 89.396 117.685 91.9433C117.442 92.8119 117.259 93.8291 117.747 94.7588C117.839 94.9395 117.931 95.2106 117.869 95.3913C117.078 97.3061 117.199 99.4046 117.045 101.384C116.924 103.211 116.773 105.219 117.777 106.959C118.233 107.766 118.902 108.277 119.88 108.277H120.031C123.013 108.277 125.998 106.059 126.729 103.211C127.582 99.9147 127.887 96.56 128.255 93.2316C128.438 91.6431 128.406 89.9643 128.651 88.4371C128.956 86.3707 129.107 84.3014 129.35 82.2641C129.593 80.2268 129.685 78.1895 129.836 76.1522C129.987 74.386 129.898 72.5877 130.748 70.9381C131.66 69.1981 134.038 68.0323 136.197 68.0323C137.05 68.0323 137.873 68.21 138.543 68.6006C139.576 69.201 140.37 70.0987 140.216 71.5093C140.094 72.7072 140.462 73.9954 140.186 75.135C139.76 76.8721 140.37 78.5801 139.822 80.3463C139.212 82.1475 139.336 84.1236 139.182 86.0443C138.848 90.0314 138.421 93.9864 138.208 97.9415C138.087 99.9205 137.782 101.899 138.087 103.905C138.27 105.164 138.087 106.572 137.873 107.831C137.601 109.48 137.722 111.127 137.601 112.777C137.571 113.016 137.48 113.313 137.722 113.464C137.814 113.523 137.873 113.523 137.936 113.523C138.149 113.523 138.362 113.374 138.513 113.255C142.259 110.588 146.37 108.58 150.208 106.091C152.613 104.534 155.233 103.304 157.546 101.626C158.553 100.906 159.741 100.547 160.804 99.9467C164.367 97.9386 167.87 95.843 171.462 93.864C174.9 91.9462 178.374 90.0868 181.816 88.2302C184.738 86.6709 187.632 85.0533 190.584 83.494C191.345 83.1064 192.107 82.6546 192.838 82.2058C193.235 81.9988 193.691 81.6695 193.051 81.3372C190.676 80.1393 190.463 78.0438 190.493 75.7937C190.493 73.7565 190.949 71.658 190.765 69.6819C190.614 68.0935 190.886 66.5662 190.795 65.0069C190.732 63.3864 191.129 61.7106 191.191 60.0318C191.221 58.3238 191.254 56.613 191.162 54.8759C191.07 53.678 190.339 53.0776 189.121 52.8969C188.849 52.8386 188.574 52.8066 188.301 52.8066C186.228 52.8066 184.919 54.1852 183.61 55.5958C183.335 55.896 183.092 56.1962 182.787 56.4935C181.875 57.4232 181.051 58.3821 180.566 59.6704C180.139 60.7488 179.926 61.8301 179.956 62.9667C179.956 63.028 179.926 63.1474 179.926 63.1474H179.864C178.644 63.1474 179.526 63.9548 179.405 64.3745C179.343 64.6426 179.556 64.9137 179.07 65.1818C178.401 65.5141 178.919 66.2311 179.132 66.6799C179.378 67.2482 179.316 67.4872 178.89 67.8778C178.371 68.3587 177.794 68.9591 178.647 69.679C178.919 69.918 178.86 71.3869 178.676 71.3869H178.463C177.945 71.3869 178.007 71.9873 178.037 72.136C178.25 72.6169 177.945 73.0336 177.915 73.4563C177.853 74.386 177.61 75.4032 177.915 76.2105C178.25 77.0208 177.551 77.7698 177.977 78.3411C178.739 79.3291 177.521 80.2006 177.826 80.9175C178.374 82.1446 177.4 82.7741 177.187 83.7039C176.79 85.1728 175.907 86.1317 174.658 86.7933C173.257 87.5715 171.889 88.4692 170.18 88.4692C170.029 88.4692 169.845 88.4692 169.694 88.44C168.021 88.2914 166.863 87.213 166.831 85.5342C166.709 82.0542 167.136 78.6121 167.316 75.135C167.47 72.4391 167.621 69.7402 167.775 67.0413C167.988 63.6866 167.926 60.2679 168.415 56.9423C168.992 52.7774 172.434 49.6909 176.577 49.6909C176.79 49.6909 177.003 49.6909 177.216 49.7201C177.308 49.7201 177.459 49.7783 177.581 49.7783C177.61 49.7783 177.643 49.7783 177.672 49.7492C178.069 49.4811 178.434 49.3586 178.798 49.3586C179.286 49.3586 179.775 49.5073 180.29 49.6588C180.687 49.7463 181.054 49.7783 181.419 49.7783C183.246 49.7783 184.617 48.6096 185.864 47.231C188.177 44.6225 190.676 42.3462 194.298 41.6875C194.846 41.5972 195.364 41.536 195.912 41.536C197.283 41.536 198.563 41.9265 199.629 43.0953C200.085 43.6053 200.36 44.1124 200.573 44.7128C200.695 45.1296 200.603 45.6426 201.124 45.8524C201.308 45.9428 201.246 46.0914 201.124 46.2401C200.757 46.6918 201.029 47.0795 201.275 47.47C201.607 48.0704 201.885 48.6067 201.092 49.1167C200.727 49.3557 200.727 51.1249 201.124 51.3056C201.702 51.6058 201.459 52.0867 201.337 52.3548C201.154 52.8357 201.186 53.3137 201.186 53.7655C201.216 54.2435 201.61 54.7827 200.849 55.0829C200.787 55.0829 200.757 55.2636 200.787 55.351C201 57.1172 200.331 58.8572 200.482 60.6555C200.544 61.1947 200.36 61.8242 200.787 62.3051C201.092 62.6928 200.573 62.8152 200.511 63.0513C200.298 63.8586 200.938 64.4911 200.787 65.2401C200.665 65.9309 200.816 66.6799 200.422 67.3677C200.179 67.7583 200.422 68.3878 200.485 68.7463C200.668 69.6149 199.937 70.5738 200.727 71.3228C201.459 71.9844 201.003 72.8821 201.4 73.6894C201.885 74.7095 202.83 75.4294 203.896 75.4294C204.139 75.4294 204.414 75.4003 204.687 75.3099C208.22 74.0508 211.51 72.3108 214.797 70.5155C216.228 69.7344 217.72 69.3467 219.305 69.3467C219.823 69.3467 220.338 69.3788 220.886 69.4691C221.647 69.5886 222.408 69.4983 223.14 69.7985C224.419 70.3377 225.698 72.4362 225.426 73.7244C225.426 73.7535 225.364 73.7856 225.396 73.8148C226 74.727 225.396 75.5052 224.997 76.3154Z" fill="#E10A0A"></path>
<path d="M87.7211 13.3201C87.4487 13.6494 87.1436 13.9817 87.0518 14.518C86.96 14.9989 86.6876 15.6284 85.9265 15.7188C85.3164 15.8091 85.0114 16.4387 84.6146 16.7971C81.9966 19.225 79.9266 22.1017 78.0372 25.127C75.203 29.6212 73.5002 34.5964 71.1251 39.2743C71.0955 39.3617 71.0333 39.455 71.0333 39.5424C71.0037 41.8799 69.3897 43.617 68.596 45.6542C68.1992 46.6743 68.0186 47.7848 67.5625 48.7699C66.3453 51.2881 65.7975 54.0453 64.7935 56.6217C64.3967 57.6127 64.3079 58.6882 64.0621 59.7374C63.9673 60.2154 63.6652 60.6351 63.5142 61.116C63.3928 61.7135 63.0552 62.1361 63.3602 62.8239C63.5764 63.2728 62.9959 63.7537 62.7205 64.1122C62.0512 65.1031 62.0512 66.2077 61.687 67.257C61.5952 67.528 61.5655 67.8253 61.4145 68.0672C60.1648 70.0754 60.1648 72.3546 60.0137 74.6017C59.9219 75.7413 59.8005 76.8488 58.6722 77.5687C58.5212 77.6882 58.3997 77.9272 58.3376 78.137C57.6387 80.2326 56.6939 82.2728 55.8736 84.3421C55.1747 86.1404 54.8371 88.0582 54.4403 89.9731C53.7414 93.15 52.8589 96.2685 52.157 99.4134C51.9438 100.372 51.9142 101.392 51.8224 102.38C51.7927 102.59 51.7602 102.797 51.5795 102.981C50.7266 103.639 50.7266 104.537 50.8776 105.467C51.0613 106.516 51.0938 107.536 50.3002 108.405C50.2084 108.524 50.0573 108.673 50.0573 108.795C50.1491 110.774 49.0534 112.57 49.234 114.549C49.2962 114.965 49.2044 115.33 48.8698 115.659C48.2923 116.257 48.6566 117.128 48.4729 117.848C48.1087 119.375 47.774 120.905 47.7415 122.491C47.7415 122.881 47.7711 123.12 48.0465 123.482C48.624 124.17 48.4108 125.099 48.2301 125.907C48.0791 126.568 47.8658 127.227 47.3772 127.857C46.6131 128.845 46.8293 130.165 46.5539 131.334C46.4325 131.812 46.4917 132.351 46.3407 132.832C46.0653 133.639 47.1936 133.849 46.9833 134.481C46.8323 134.989 45.855 135.111 46.16 135.947C46.1897 136.009 46.1304 136.128 46.0979 136.218C44.7593 139.783 44.8511 143.589 44.241 147.276C43.6931 150.544 43.3585 153.84 42.9321 157.107C42.5648 159.835 42.2598 162.56 41.8037 165.227C41.3773 167.804 41.2263 170.444 39.9469 172.782C39.1858 174.099 38.0279 174.819 36.5353 175.029C36.171 175.09 35.866 175.119 35.561 175.119C32.8513 175.119 31.6637 173.172 31.2076 170.864C30.5087 167.509 29.6529 164.152 29.1968 160.765C29.0132 159.567 28.8622 158.366 28.5571 157.2C28.0093 155.221 28.0389 153.123 27.34 151.234C27.0053 150.337 27.4614 149.136 26.3953 148.506C26.3331 148.477 26.3331 148.238 26.3657 148.148C27.0053 146.288 26.1228 144.583 25.9096 142.814C25.575 139.908 25.0863 137 24.6599 134.12C24.112 130.614 23.5345 127.078 22.9866 123.572C22.6224 121.415 22.2552 119.229 21.9205 117.07C21.2779 113.083 20.6412 109.128 20.0311 105.143C19.9097 104.333 19.7587 103.616 19.1486 103.016C18.7843 102.657 18.8761 101.967 18.965 101.518C19.0568 100.949 18.7814 100.349 19.0864 99.7777C19.1782 99.597 19.1486 99.4775 18.9354 99.4775C18.7843 99.4775 18.5711 99.5387 18.2039 99.629C18.5089 98.9674 18.3549 98.4865 17.961 98.131C17.7182 97.892 17.4428 97.7725 17.2296 97.7725C16.9245 97.7725 16.6817 97.9794 16.5307 98.4282C16.2552 99.4192 15.5238 100.107 14.9167 100.827C14.6738 101.095 14.7656 101.156 14.7656 101.395C14.7953 101.905 14.7656 102.383 14.4932 102.864C13.8239 104.033 13.3974 105.321 12.9118 106.548C12.3935 107.836 12.0885 109.154 11.662 110.474C10.8387 112.902 9.59197 115.152 8.67984 117.548C8.31558 118.565 7.09546 119.227 5.97011 119.495C5.30082 119.643 4.66114 119.763 4.08366 119.763C2.89315 119.763 1.82999 119.314 0.826057 117.935C0.0945775 116.915 0.0353484 115.776 0.399608 114.639C1.03928 112.602 1.85961 110.562 2.44005 108.495C3.05011 106.155 4.02443 103.969 4.84772 101.722C5.45778 100.101 6.03526 98.4224 6.64236 96.8077C7.83286 93.7212 8.8368 90.5735 9.84073 87.4258C11.2415 82.9607 12.8851 78.5888 14.4991 74.2111C15.3194 71.9349 17.3332 70.3435 19.8593 70.3435C20.499 70.3435 21.1683 70.4659 21.8702 70.6758C23.1495 71.0634 23.9995 71.9349 24.5799 73.1007C25.6786 75.3187 25.7378 77.7786 26.2857 80.1452C26.8336 82.6896 27.109 85.2981 27.5325 87.8455C27.7457 89.1046 28.0507 90.3316 28.3232 91.5936C28.566 92.7623 28.9007 93.9282 28.7792 95.2514C28.6578 96.5979 29.1761 98.0377 29.3893 99.4454C29.5403 100.433 29.6321 101.424 29.8187 102.412C30.0319 103.733 30.4288 104.992 31.0063 106.19C31.2817 106.729 31.5245 107.268 31.5245 107.869C31.5541 108.379 31.4949 108.918 31.951 109.276C32.407 109.667 31.6459 109.818 31.7999 110.174C32.6824 112.211 32.1642 114.549 33.2599 116.557C33.5946 117.154 33.5946 117.755 33.3221 118.445C32.7446 119.911 32.8957 121.351 33.873 122.672C34.3261 123.269 34.2046 123.989 34.0862 124.677C33.8108 126.175 34.178 127.676 34.4208 129.084C34.5719 129.949 34.8473 130.85 34.8769 131.78C34.9065 132.316 35.638 132.196 35.7298 132.829C36.6123 131.211 36.6123 129.594 36.7959 128.034C37.2224 124.919 37.711 121.8 38.2589 118.684C39.1118 114.1 39.7811 109.451 40.6014 104.837C41.0871 102.048 41.7593 99.2909 42.3398 96.5338C43.1009 92.7274 44.013 88.953 44.9873 85.1757C45.9616 81.4276 46.9063 77.6532 48.1235 73.9692C48.4877 72.92 48.4877 71.7804 48.7928 70.702C49.5539 68.006 50.4068 65.3363 51.1353 62.6403C51.4699 61.4133 51.8668 60.1833 52.1422 58.9272C52.4146 57.5165 53.0247 56.1379 53.3297 54.7302C53.7266 52.9931 54.6091 51.463 55.157 49.8162C56.8924 44.2436 59.0542 38.8487 61.0947 33.3956C63.4994 26.9806 65.9367 20.6269 68.525 14.3052C69.4371 12.0901 70.2604 9.84008 71.3561 7.71245C72.4815 5.55276 73.9444 3.63498 75.9553 2.10775C77.51 0.906946 79.124 0.370667 80.7676 0.370667C82.2306 0.370667 83.7232 0.787449 85.2128 1.56855C88.0469 2.94714 88.9886 5.37497 89.4773 8.28079C89.8208 10.4143 88.9709 11.8511 87.7211 13.3201Z" fill="#E10A0A"></path>
<path d="M103.038 88.0932C102.916 88.1544 102.887 88.3613 102.887 88.5129C102.916 90.6697 101.365 91.7189 99.8424 92.8294C97.4673 94.5664 95.2136 96.4259 93.6322 99.0024C93.2354 99.632 93.0843 100.323 92.9629 100.952C92.8119 101.882 92.3854 102.78 92.415 103.797C92.415 104.517 91.8346 105.146 91.805 105.986C91.6836 109.853 91.3489 113.75 91.2275 117.644C91.1653 119.865 91.3193 122.229 89.8889 124.269C88.1505 126.694 85.7162 127.894 82.8229 128.346H82.5475C81.4517 128.346 80.5396 127.449 80.1131 126.099C79.7755 125.166 79.8081 124.208 79.8703 122.948C79.506 121.331 80.2968 119.442 79.9917 117.586C79.7489 115.936 80.0213 114.318 80.0539 112.701C80.0835 111.351 80.0539 109.944 80.51 108.565C80.9957 107.093 80.8742 105.476 80.9957 103.919C81.2385 100.652 81.1171 97.3557 81.7864 94.1205C82.7311 89.6233 85.5622 87.7668 89.8267 87.2276C91.9886 86.9274 93.878 86.088 95.7941 85.2486C97.0734 84.7065 98.2906 83.9603 99.7239 83.87H99.9668C100.82 83.87 101.522 84.141 102.069 84.9192C102.525 85.575 102.801 86.2687 103.136 86.9565C103.284 87.2859 103.464 87.7318 103.038 88.0932Z" fill="#E10A0A"></path>
<path d="M72.3127 105.234C71.9484 106.344 72.1291 107.574 71.827 108.679C71.2495 110.716 71.676 112.817 71.2495 114.791C70.672 117.728 70.367 120.695 69.8191 123.663C69.4815 125.429 69.5763 127.201 69.5763 128.999C69.6059 130.646 69.3334 132.263 68.8744 133.855C68.753 134.307 68.3265 134.752 69.2387 134.904C69.7273 134.965 69.2712 135.501 69.2091 135.534C67.0176 136.163 65.7086 138.139 63.6356 138.979C63.0877 139.218 62.5399 139.337 62.0216 139.337C61.3819 139.337 60.7423 139.156 60.1026 138.859C59.7057 138.646 59.5251 138.291 59.3711 137.897C58.9446 136.67 58.7936 135.44 58.8232 134.152C58.9447 131.666 59.2201 129.18 59.1875 126.72C59.1579 124.831 59.4925 122.975 59.6139 121.115C59.7975 118.026 59.9782 114.91 60.224 111.794C60.4698 108.588 60.4372 105.292 61.9298 102.267C63.3898 99.2676 65.7975 97.4111 68.9633 96.6329C69.2979 96.5425 69.6059 96.5134 69.8784 96.5134C71.3709 96.5134 72.0402 97.6501 72.2209 99.2676C72.2505 99.5387 72.1587 99.836 72.3719 100.078C72.6473 100.346 72.6147 100.498 72.2801 100.766C71.7618 101.182 72.0373 101.783 72.2801 102.264C72.7983 103.287 72.6473 104.246 72.3127 105.234Z" fill="#E10A0A"></path>
<path d="M159.616 63.5497C159.403 65.1381 159.252 66.7265 158.977 68.2858C158.764 69.3934 158.793 70.4717 158.915 71.5793C159.036 72.748 158.915 73.9197 158.793 75.0855C158.672 76.1347 158.977 77.1228 158.823 78.172C158.761 78.7112 158.213 78.8919 158.183 79.4311C158.091 80.2414 157.94 80.9904 158.761 81.5004C158.731 81.5908 158.639 81.6199 158.518 81.6199C158.396 81.6199 158.242 81.5908 158.121 81.5908C157.937 81.5908 157.878 81.6782 158.272 82.1591C158.577 82.4885 157.967 82.5206 157.937 82.8178C157.754 85.0067 157.327 87.2538 157.724 89.3843C158.059 91.2409 157.54 92.6516 156.474 93.9077C155.014 95.6157 153.063 96.6649 150.993 97.414C150.507 97.5947 150.018 97.6821 149.592 97.6821C147.945 97.6821 146.882 96.4842 146.971 94.5373C147.092 91.9608 147.427 89.3523 147.64 86.7467C147.883 83.7796 148.07 80.7835 148.339 77.8164C148.585 75.3303 148.92 72.8092 149.162 70.3231C149.314 68.9737 149.438 67.5951 149.527 66.2485C149.74 63.7916 150.501 61.5124 152.509 59.9269C153.88 58.8776 155.464 58.0965 157.292 58.0965H157.535C158.663 58.1257 159.181 58.6386 159.273 59.717C159.303 59.8365 159.211 60.0172 159.273 60.0755C160.043 61.1801 159.741 62.3197 159.616 63.5497Z" fill="#E10A0A"></path>
<path d="M77.4301 75.954C77.1576 78.1429 75.8457 79.6701 74.2021 80.9292C73.0767 81.7686 71.8596 82.4856 70.6098 83.1763C70.1538 83.4445 69.6355 83.5669 69.1498 83.5669C67.5684 83.5669 66.1647 82.2203 66.2269 80.2093C66.5645 78.3236 67.447 76.4641 69.1498 75.1176C70.518 74.0392 71.7678 72.7801 73.6276 72.4216C73.9 72.3604 74.1754 72.3312 74.4183 72.3312C76.3343 72.3283 77.6729 73.8585 77.4301 75.954Z" fill="#E10A0A"></path>
<path d="M164.065 41.0113C164.186 41.7895 163.973 42.5677 163.546 43.1681C162.205 44.9955 160.896 46.9133 158.734 47.9917C158.275 48.2307 157.606 48.3502 156.874 48.3502C155.808 48.3502 154.683 48.0821 154.105 47.572C153.344 46.8521 153.128 45.832 153.252 44.9343C153.679 41.399 157.12 38.4349 160.712 38.3999C163.028 38.5835 163.697 38.7642 164.065 41.0113Z" fill="#E10A0A"></path>
<path d="M170.387 112.995L166.641 126.181C166.123 128.069 164.906 133.045 164.906 133.045H164.843C164.843 133.045 163.623 128.069 163.075 126.181L160.336 116.472C157.167 118.212 154.001 120.008 150.925 121.896C150.347 122.255 149.767 122.616 149.16 122.975V143.114H155.983V127.979C155.983 126.752 155.832 121.925 155.832 121.925H155.923C155.923 121.925 156.99 126.481 157.354 127.556L161.707 143.111H167.95L172.365 127.527C172.703 126.417 173.766 121.923 173.766 121.923H173.858C173.858 121.923 173.737 126.717 173.737 127.947V143.111H180.678V112.995H170.387Z" fill="#E10A0A"></path>
<path d="M202.664 112.995V132.625C202.664 135.563 200.991 137.658 197.488 137.658C193.771 137.658 192.219 135.679 192.219 132.744V112.995H184.667V132.502C184.667 139.518 188.932 143.651 197.488 143.651C206.043 143.651 210.245 139.427 210.245 132.502V112.995H202.664Z" fill="#E10A0A"></path>
<path d="M228.367 124.534C223.768 123.514 221.422 123.004 221.422 120.908C221.422 119.229 223.19 118.093 225.838 118.093C228.639 118.093 230.437 119.41 230.739 121.716H238.139C237.864 115.394 232.72 112.456 226.083 112.456C219.447 112.456 213.93 115.271 213.93 121.716C213.93 128.16 219.533 129.626 224.834 130.856C229.036 131.873 231.532 132.354 231.532 134.75C231.532 137.145 229.095 137.926 226.599 137.926C222.974 137.926 220.963 136.667 220.599 133.642H212.985C213.168 140.293 218.499 143.831 226.628 143.831C233.691 143.831 239.173 140.325 239.173 134C239.176 127.562 234.062 125.851 228.367 124.534Z" fill="#E10A0A"></path>
<path d="M249.899 112.826H242.315V142.598H249.899V112.826Z" fill="#E10A0A"></path>
<path d="M273.861 132.657C273.526 135.563 271.272 137.664 267.89 137.664C263.383 137.664 260.552 133.677 260.552 128.163C260.552 122.648 262.894 118.6 267.858 118.6C271.115 118.6 273.25 120.669 273.644 123.365H281.229C280.832 119.979 279.28 117.044 276.63 115.065C274.438 113.415 271.453 112.395 267.89 112.395C258.787 112.395 252.849 119.168 252.849 128.16C252.849 137.151 258.97 143.773 267.952 143.773C272.276 143.773 275.383 142.604 277.761 140.357C279.86 138.378 281.232 135.65 281.445 132.654H273.861V132.657Z" fill="#E10A0A"></path>
<path d="M152.065 174.545C149.414 171.686 147.963 167.731 147.963 163.146C147.963 158.562 149.586 154.271 152.494 151.412C155.017 148.888 158.565 147.416 162.966 147.416C170.831 147.416 175.531 151.537 176.514 157.847H169.164C168.607 155.408 166.558 153.557 163.223 153.557C158.18 153.557 155.657 157.678 155.657 163.149C155.657 168.62 158.565 172.741 163.351 172.741C167.325 172.741 169.676 170.132 169.976 167.483V167.398H164.248V161.931H176.985V178.083H171.684L171.258 174.466H171.172C169.164 177.538 166.17 178.757 162.495 178.757C158.136 178.751 154.588 177.238 152.065 174.545Z" fill="#E10A0A"></path>
<path d="M180.607 148.002H195.225C201.293 148.002 205.91 151.074 205.91 156.667C205.91 160.159 204.157 162.724 200.609 163.945V164.07C203.259 164.953 204.625 166.594 205.054 169.581C205.694 173.537 205.267 177.323 206.336 177.699V178.077H198.986C198.175 177.614 198.302 174.082 197.831 171.094C197.446 168.319 195.992 166.804 192.746 166.804H188.174V178.077H180.607V148.002ZM193.857 161.295C196.848 161.295 198.388 159.908 198.388 157.635C198.388 155.361 196.934 153.892 194.029 153.892H188.174V161.295H193.857Z" fill="#E10A0A"></path>
<path d="M207.992 163.102C207.992 154.102 213.847 147.413 223.08 147.413C232.314 147.413 238.211 154.102 238.211 163.102C238.211 172.103 232.356 178.791 223.08 178.791C213.847 178.791 207.992 172.105 207.992 163.102ZM230.514 163.102C230.514 157.635 228.076 153.429 223.119 153.429C218.161 153.429 215.683 157.635 215.683 163.102C215.683 168.57 218.203 172.735 223.119 172.735C228.035 172.735 230.514 168.573 230.514 163.102Z" fill="#E10A0A"></path>
<path d="M240.891 167.477V148.002H248.457V167.731C248.457 170.674 249.994 172.653 253.714 172.653C257.22 172.653 258.887 170.549 258.887 167.605V148.005H266.454V167.48C266.454 174.42 262.222 178.625 253.717 178.625C245.211 178.625 240.891 174.504 240.891 167.477Z" fill="#E10A0A"></path>
<path d="M270.372 148.002H284.134C287.853 148.002 290.587 149.01 292.467 150.78C294.434 152.59 295.544 155.154 295.544 158.183C295.544 163.945 291.484 168.025 285.203 168.025H278.066V178.077H270.372V148.002ZM283.663 162.135C286.399 162.135 287.936 160.538 287.936 158.139C287.936 155.74 286.355 154.268 283.663 154.268H278.066V162.135H283.663Z" fill="#E10A0A"></path>
</svg>